<svg xmlns="http://www.w3.org/2000/svg" viewBox="0 0 64 80" x="0px" y="0px"><path d="m60.46,50.88c-.49-.25-1.09-.06-1.35.43-1.07,2.08-3.55,2.07-4.4,2l-.03-.03c.86-.49,1.84-1.22,2.31-2.18.62-1.28,1.82-1.53,1.86-1.54.54-.09.91-.61.82-1.15-.09-.54-.61-.91-1.15-.82-.09.02-2.24.41-3.32,2.63-.3.61-1.19,1.19-1.98,1.58l-1.6-1.6c.53-1.11.34-2.48-.58-3.4l-2.82-2.83c-.07-.07-.15-.12-.22-.18-.15,1.07-.63,2.06-1.41,2.82-.75.76-1.73,1.23-2.79,1.38.06.07.11.15.17.21l2.83,2.83c.59.59,1.35.88,2.12.88.44,0,.88-.11,1.29-.3l1.56,1.56c0,.06,0,.11.02.17-.03.94-.22,2.22-.74,2.79-1.65,1.84-1.21,3.97-1.19,4.06.1.47.51.78.97.78.07,0,.14,0,.21-.02.54-.11.88-.64.78-1.18,0-.05-.23-1.25.72-2.31.58-.64.89-1.53,1.06-2.37.4.71,1.29,2.65.63,4.55-.18.52.09,1.09.62,1.27.11.04.22.06.33.06.41,0,.8-.26.94-.67.67-1.92.26-3.77-.23-5.03,1.58-.12,3.81-.74,5.01-3.08.25-.49.06-1.09-.43-1.35Z"/><path d="m46.06,43.08c0-.8-.31-1.55-.88-2.12l-2.82-2.83s-.01,0-.02-.01c-.15,1.06-.61,2.05-1.37,2.83-.81.79-1.81,1.26-2.89,1.4.01.01.02.02.03.04l2.83,2.82c.57.57,1.32.88,2.12.88s1.56-.31,2.12-.88c.57-.56.88-1.32.88-2.12Z"/><path d="m40.41,37.41c0-.8-.31-1.55-.87-2.12l-2.83-2.83c-.85-.84-2.17-1.06-3.26-.64-.54-1-1.35-3.03-.7-5.44.8-3.07,3.3-4.45,3.9-4.73l3.44-.92c.56.13,1.11.31,1.63.57.62.31,1.19.7,1.7,1.17.19.17.43.26.67.26.27,0,.54-.11.74-.33.37-.41.34-1.04-.06-1.41-.65-.59-1.37-1.09-2.16-1.48-.22-.11-.44-.21-.66-.3.2-.25.38-.51.56-.78.43-.69.77-1.44,1-2.22.15-.53-.15-1.08-.68-1.24-.53-.16-1.08.15-1.24.68-.18.6-.43,1.18-.77,1.71-.34.54-.76,1.01-1.23,1.43l-3.5.94c-.56.04-3.46.17-5.73-2.09-2.26-2.27-2.13-5.17-2.09-5.73l.93-3.49c.4-.42.83-.8,1.31-1.12.58-.38,1.2-.68,1.86-.89.53-.17.82-.73.65-1.26-.17-.53-.73-.82-1.26-.65-.84.26-1.63.65-2.36,1.13-.2.13-.4.27-.59.42-.12-.3-.25-.59-.4-.87-.38-.72-.86-1.39-1.42-1.97-.38-.4-1.02-.41-1.41-.03-.4.38-.41,1.02-.03,1.41.43.45.8.96,1.1,1.52.3.56.5,1.16.63,1.78l-.93,3.45c-.28.6-1.66,3.1-4.73,3.9-2.99.79-5.4-.64-5.97-1.02l-2.53-2.53c-.17-.55-.28-1.12-.32-1.69-.04-.69.01-1.38.16-2.05.12-.54-.22-1.07-.76-1.19-.54-.12-1.07.22-1.19.76-.19.85-.26,1.73-.2,2.61.01.24.04.48.07.72-.32-.05-.63-.08-.95-.09-.82-.03-1.63.05-2.42.25-.54.13-.86.67-.73,1.21.13.54.67.87,1.21.73.61-.15,1.24-.21,1.87-.19.63.02,1.25.15,1.85.35l2.54,2.54c.38.58,1.81,2.99,1.02,5.97-.8,3.07-3.3,4.45-3.9,4.73l-3.44.92c-.56-.13-1.11-.31-1.63-.57-.62-.31-1.19-.7-1.7-1.17-.41-.37-1.04-.34-1.41.06-.37.41-.34,1.04.06,1.41.65.59,1.37,1.09,2.16,1.48.22.11.44.21.66.3-.2.25-.38.51-.56.78-.43.69-.77,1.44-1,2.22-.15.53.15,1.08.68,1.24.09.03.19.04.28.04.43,0,.83-.28.96-.72.18-.6.43-1.18.77-1.71.34-.54.76-1.01,1.23-1.43l3.5-.94c.56-.04,3.46-.17,5.73,2.09,2.26,2.27,2.13,5.17,2.09,5.73l-.93,3.49c-.4.42-.83.8-1.31,1.12-.58.38-1.2.68-1.86.89-.53.17-.82.73-.65,1.26.17.53.73.82,1.26.65.84-.26,1.63-.65,2.36-1.13.2-.13.4-.27.59-.42.12.3.25.59.4.87.38.72.86,1.39,1.42,1.97.2.2.46.31.72.31s.5-.09.69-.28c.4-.38.41-1.02.03-1.41-.43-.45-.8-.96-1.1-1.52-.3-.56-.5-1.16-.63-1.78l.93-3.45c.28-.6,1.66-3.1,4.73-3.9,2.4-.64,4.42.16,5.43.7-.14.36-.22.74-.22,1.14,0,.8.31,1.55.87,2.12l2.83,2.83c.57.56,1.32.87,2.12.87s1.56-.31,2.13-.87c.56-.57.87-1.32.87-2.13Zm-14.29-11.29c-1.17,1.17-3.07,1.17-4.24,0-1.17-1.17-1.17-3.07,0-4.24s3.07-1.17,4.24,0,1.17,3.07,0,4.24Z"/><text x="0" y="79" fill="#000000" font-size="5px" font-weight="bold" font-family="'Helvetica Neue', Helvetica, Arial-Unicode, Arial, Sans-serif">Created by Andi Nur Abdillah</text><text x="0" y="84" fill="#000000" font-size="5px" font-weight="bold" font-family="'Helvetica Neue', Helvetica, Arial-Unicode, Arial, Sans-serif">from the Noun Project</text></svg>