<?xml version="1.0" encoding="UTF-8" standalone="no"?>
<!-- Created with Inkscape (http://www.inkscape.org/) -->

<svg
   xmlns:dc="http://purl.org/dc/elements/1.1/"
   xmlns:cc="http://creativecommons.org/ns#"
   xmlns:rdf="http://www.w3.org/1999/02/22-rdf-syntax-ns#"
   xmlns:svg="http://www.w3.org/2000/svg"
   xmlns="http://www.w3.org/2000/svg"
   xmlns:inkscape="http://www.inkscape.org/namespaces/inkscape"
   version="1.0"
   width="290.47"
   height="366.24313"
   id="svg2576">
  <defs
     id="defs2578" />
  <metadata
     id="metadata2581">
    <rdf:RDF>
      <cc:Work
         rdf:about="">
        <dc:format>image/svg+xml</dc:format>
        <dc:type
           rdf:resource="http://purl.org/dc/dcmitype/StillImage" />
      </cc:Work>
    </rdf:RDF>
  </metadata>
  <g
     transform="translate(-367.47877,-152.09776)"
     id="layer1">
    <path
       d="m 643.28461,155.54156 c -8.14346,10.62503 -18.44439,27.03056 -17.52077,31.72969 0.27552,1.40175 -13.24913,0.14458 -17.80394,0.0505 -4.19763,-0.0867 -9.92291,-0.26026 -13.99061,0.17678 -3.54602,0.38099 -11.2632,1.46472 -11.2632,1.46472 l -12.62691,3.53554 -13.63706,5.05076 -15.65736,6.56599 -10.60661,5.55584 -10.6066,8.08122 -10.10152,9.09137 -5.55584,10.10153 -3.53554,11.11168 -5.55583,24.74874 -3.03046,10.10152 -2.52538,5.55584 -1.01016,4.54569 -1.01015,9.09137 -1.01015,11.61675 -1.01015,6.06092 -3.03046,4.54569 -8.5863,4.04061 c 0,0 -4.05526,0.22392 -5.55584,1.01015 -0.56943,0.29835 -1.23843,0.93502 -1.51523,1.51523 -0.31162,0.65319 0.11486,1.7756 -0.25254,2.39911 -0.70422,1.19513 -2.15743,1.76098 -3.78807,2.65165 -1.66783,0.91098 -3.03046,1.51523 -4.54568,1.51523 -0.90914,0 -2.6264,0.12627 -3.53554,0.12627 -1.21218,0 -2.82843,0 -4.04061,0 -1.3637,0 -3.19516,-0.31593 -4.54568,-0.50508 -1.09244,-0.153 -2.4325,-0.99862 -3.53554,-1.01015 -1.46791,-0.0153 -1.79345,-0.45015 -2.14658,-0.12627 -2.11352,1.93853 -3.40926,3.53553 -3.40926,3.53553 l -4.04061,3.53554 -7.07106,8.58629 -10.60661,16.66752 -4.04061,5.55584 -9.59644,3.53553 -9.59645,2.02031 -5.55584,5.55584 -4.54569,4.54568 c 0,0 -2.6265,4.35565 -4.54569,4.54569 -2.17466,0.21533 -6.06091,-4.04061 -6.06091,-4.04061 l -2.02031,-3.03046 -0.50507,-2.52538 -0.50508,-4.04061 c 0,0 -0.15727,-1.78427 0,-2.52538 0.3098,-1.45982 2.02031,-4.54569 2.02031,-4.54569 l 2.52538,-4.04061 c 0,0 1.46164,-1.29304 2.22952,-1.95902 0.72396,-0.62789 2.31616,-2.08159 2.31616,-2.08159 l 2.02031,-2.0203 2.0203,-2.02031 c 0,0 4.22089,-7.43715 6.06092,-10.6066 3.44447,-5.93312 11.61675,-19.69797 11.61675,-19.69797 l 4.04061,-6.06092 2.02031,-2.52538 3.53553,-4.54569 0.50508,-4.54568 0,-4.54569 0,-3.03046 -1.51523,-3.53553 -2.52538,-5.05076 -1.01015,-6.06092 0,-5.05076 4.04061,-12.62691 7.57614,-18.18274 c 0,0 2.63703,-6.63977 3.78807,-9.62171 1.16647,-3.02187 3.78808,-10.07627 3.78808,-10.07627 l 9.09137,-22.22335 8.58629,-12.12184 8.08123,-10.10152 15.15228,-9.59645 17.67767,-10.10153 28.78935,-10.6066 19.69797,-4.04061 34.85027,-2.0203 25.25381,-1.01016 33.84011,-1.01015 11.61676,0.50508 c 0,0 9.03177,0.49954 7.54551,2.43872 z"
       inkscape:connector-curvature="0"
       id="path2398"
       style="opacity:0.5;fill:#ff0000;fill-rule:evenodd;stroke:#000000;stroke-width:1px;stroke-linecap:butt;stroke-linejoin:miter;stroke-opacity:1" />
    <path
       d="m 377.89766,394.02422 8.08122,-8.83883 c 0,0 2.65952,-3.0248 4.11326,-4.29315 0.52777,-0.46047 1.19755,-1.4698 1.87754,-1.63769 2.52835,-0.62426 9.41403,-1.89785 9.41403,-1.89785 l 10.10152,-3.53553 15.40483,-24.24366 6.56599,-7.07107 6.56599,-6.06091 1.26269,-0.75762 7.07107,2.02031 8.5863,-0.25254 2.52538,0 5.80837,-2.77792 c 0,0 1.0638,-1.14713 1.26269,-1.76777 0.16184,-0.50503 0,-1.76777 0,-1.76777 0,0 0.35242,-1.26824 0.75762,-1.61983 0.91127,-0.79073 3.84672,-1.17341 3.84672,-1.17341 0,0 2.51762,-0.24581 3.3876,-0.52038 2.44537,-0.77179 5.57819,-1.92871 7.47154,-3.77277 1.23881,-1.20656 2.66104,-3.14793 3.22435,-4.7829 0.92506,-2.6849 1.51523,-9.34391 1.51523,-9.34391 l 1.26269,-16.41498 1.76776,-6.31345 2.02031,-4.54569 2.0203,-6.31345 2.02031,-7.82868 2.52538,-11.61676 c 0,0 3.19047,-14.2055 5.55584,-19.95051 0.72691,-1.76551 2.1785,-3.85562 3.10442,-5.55584 0.7292,-1.33899 1.50714,-3.34863 2.45142,-4.54569 1.53197,-1.94208 6.31345,-5.3033 6.31345,-5.3033 l 4.54306,-4.54305 c 0,0 3.28782,-3.45 3.53816,-2.78055 0.66326,1.77365 0,10.35406 0,10.35406 l -0.50507,3.53553 -0.50508,2.77792 -0.25254,8.83884 0.50508,11.36422 1.01015,4.29314 c 0,0 0.64324,5.24382 0.94887,7.57615 0.26579,2.02822 1.07143,6.81853 1.07143,6.81853 l 0.25254,8.58629 0.50508,10.85914 0,11.36422 0,13.63706 -1.51523,13.63706 c 0,0 -0.74861,4.19068 -1.30865,5.54052 -0.58788,1.41694 -0.96419,5.06608 -0.96419,5.06608 0,0 -1.78911,5.92641 -2.66063,8.40773 -1.26879,3.61242 -4.91552,11.54278 -4.91552,11.54278 l -4.04061,8.5863 -2.52538,5.05076 -2.52538,6.81853 -3.03046,10.85914 -4.54568,11.11168 c 0,0 -3.33582,5.78571 -4.73958,8.48169 -0.68584,1.3172 -1.95204,2.89913 -2.94117,3.96665 -1.05654,1.14026 -2.51152,2.38061 -3.78807,3.26767 -1.25206,0.87004 -3.82364,1.93998 -5.25998,2.45141 -4.24228,1.51054 -13.57578,3.55086 -13.57578,3.55086 l -9.84899,2.27284 -10.10152,1.01016 -7.07107,1.51522 c 0,0 -2.09132,0.41156 -2.99982,0.48976 -0.46207,0.0398 -1.31066,-0.19024 -1.54587,0.0153 -1.03314,0.90292 1.0364,3.14737 0.50508,4.54569 -0.25529,0.67187 -2.27284,-0.75762 -2.27284,-0.75762 l -2.27285,-0.50507 -3.53553,0.50507 -8.33376,0.50508 -3.78807,0 -3.03046,1.01015 -2.52538,0.75762 -3.03046,0.75761 -4.04061,-0.25254 c 0,0 -2.82843,0 -4.04061,0 -0.9849,0 -2.29809,0 -3.28299,0 -0.30305,0 -0.74957,0.1547 -1.01016,0 -0.81629,-0.48458 -1.28067,-1.85807 -1.51523,-2.77792 -0.0936,-0.36706 0,-1.26269 0,-1.26269 0,0 -0.26527,-0.93261 -0.50507,-1.26269 -0.34778,-0.47872 -1.51523,-1.26269 -1.51523,-1.26269 0,0 -1.0304,-0.38185 -1.26269,-0.75761 -0.26152,-0.42304 -0.12754,-1.65292 -0.12754,-1.65292 0,0 0.0174,-1.3278 0.13008,-1.88262 0.17374,-0.85587 0.92414,-2.44105 0.94765,-2.75254 0.0585,-0.77515 0.96594,-2.70666 1.00761,-3.02538 0.16472,-1.2599 2.28554,-10.74006 1.83027,-14.42513 -0.10591,-0.8573 -0.43982,-1.78112 -0.55448,-2.63729 -0.0503,-0.37546 -0.1161,-1.03465 -0.20313,-1.40332 -0.0778,-0.32975 -0.28661,-0.52415 -0.36445,-0.8539 -0.0348,-0.14747 -0.4256,-0.80056 -0.55449,-1.0414 -0.10725,-0.20039 -0.55803,-0.55002 -0.71875,-0.71074 -0.16072,-0.16072 -0.94251,-0.93443 -1.18204,-0.92949 -3.7634,0.0776 -1.35874,-0.0116 -1.58573,0 -1.57038,0.0805 -2.37982,-0.0502 -3.83901,0.53571 -0.21507,0.0864 -0.38643,0.41225 -0.60969,0.47444 -0.65775,0.18321 -2.26015,-0.26786 -2.26015,-0.26786 0,0 -2.02681,-0.26284 -2.81119,-0.625 -0.92869,-0.4288 -2.72189,-2.05357 -2.72189,-2.05357"
       inkscape:connector-curvature="0"
       id="path2422"
       style="opacity:0.5;fill:#c83737;fill-rule:evenodd;stroke:#000000;stroke-width:1px;stroke-linecap:butt;stroke-linejoin:miter;stroke-opacity:1" />
    <path
       d="m 625.63757,188.24726 c -1.32645,-1.40477 -6.54074,-0.34467 -6.54074,-0.34467 l -8.48528,-0.17677 -10.78338,-0.53033 -8.3085,0.53033 -9.54594,1.41421 -12.9047,3.35876 -16.97056,6.71751 -10.96016,4.5962 -7.07107,3.88908 -4.06586,2.12132 -3.18198,2.2981 -2.12132,1.94454 -1.06066,0.35356 0.7071,3.88909 -0.53033,6.18718 -1.23743,7.77817 0,10.25305 0.53033,7.95495 1.06066,4.41942 0.17677,3.35876 0.35356,2.65165 0.53033,3.71231 1.06066,5.12652 0,6.54074 0.53033,15.9099 0.17677,15.02602 -0.17677,7.42462 -0.70711,6.18719 -0.88388,7.6014 -1.23744,5.65685 -1.06066,5.3033 -4.59619,12.72792 -6.18719,13.61181 -3.88909,7.6014 -3.35875,10.78338 -1.59099,6.54073 -2.82843,6.01041 -2.47487,6.18719 -3.53554,6.0104 -3.53553,4.94975 -3.88909,3.35876 -7.6014,2.65165 -12.37437,3.18198 -7.07106,1.59099 -6.54074,0.70711 -6.54074,0.88388 c 0,0 -4.4255,1.15462 -6.36396,1.41421 -1.10509,0.14799 -3.0229,-0.69949 -3.71231,0.17678 -0.86821,1.10353 1.86434,3.59107 0.88388,4.59619 -0.45051,0.46184 -2.12132,-0.35355 -2.12132,-0.35355 0,0 -1.43818,-0.79094 -2.12132,-0.88388 -0.84732,-0.11528 -2.82842,0.35355 -2.82842,0.35355 l -7.42463,0.70711 -3.18198,0 -2.65165,0 -7.95495,2.29809 -6.31976,-0.0884 c 0,0 -1.82942,-0.24792 -2.34229,0.13257 -0.60983,0.45241 -1.01119,1.36713 -1.55178,1.90036 -0.19252,0.1899 -0.97665,1.46776 -1.27665,1.76776 -0.825,0.825 -1.35642,3.31617 -1.43566,3.87837 -0.21478,1.52381 -0.77301,3.7489 -0.76961,5.25152 0.003,1.25359 -0.13552,2.3657 -0.19508,2.74762 -0.0897,0.5755 0.051,3.49694 0.4558,3.85562 0.51752,0.45858 1.70239,0.3882 2.2981,0.73928 0.50842,0.29963 0.60913,0.76004 1.08211,1.08026 0.21957,0.14866 0.26716,0.016 0.50888,0.125 0.58054,0.26179 1.12374,1.04906 1.40533,1.59099 0.64185,1.23525 1.73517,1.96525 2.66053,3.00521 0.76265,0.8571 1.57997,2.17045 2.12132,3.18198 0.32531,0.60785 0.77945,1.43985 0.88389,2.12132 0.17747,1.15802 0.061,2.79336 -0.35356,3.88909 -0.34908,0.92264 -1.4405,1.80367 -1.94454,2.65165 -1.01823,1.71302 -1.93772,4.22774 -2.82843,6.0104 -0.45596,0.91254 -1.18265,2.07039 -1.59099,3.00521 -0.34783,0.79629 -0.85046,1.70958 -0.9571,2.73376 -0.17575,1.68793 0.25,6.28185 0.25,6.28185 l 0,2.65165 c 0,0 0.14719,1.55384 0.31066,2.24632 0.1584,0.67099 0.75,1.48367 0.75,2.1731 0,1.21976 -0.28024,2.87873 0,4.06586 0.13623,0.57707 0.73076,1.19495 0.88388,1.76777 0.23322,0.87249 -0.0564,2.13272 0.17678,3.0052 0.27561,1.03107 1.01973,2.28047 1.59099,3.18198 0.5054,0.79758 1.25399,1.8309 1.94454,2.47488 1.3124,1.22389 3.38621,2.47804 4.94975,3.35875 1.2199,0.68714 2.88494,1.60256 4.24264,1.94455 2.42197,0.61006 8.3085,0.53033 8.3085,0.53033 l 6.18719,0 c 0,0 6.85056,0.38244 9.59772,-0.60356 1.06823,-0.38341 3.1302,-2.04809 3.1302,-2.04809 0,0 1.3962,-1.58822 2.12132,-2.12132 1.01294,-0.7447 2.51463,-1.56219 3.71231,-1.94455 1.12175,-0.35812 2.71501,-0.4403 3.88909,-0.53033 3.0145,-0.23116 7.1126,0.42098 10.07627,-0.17677 0.83986,-0.1694 1.82856,-0.82278 2.65165,-1.06066 1.9686,-0.56893 6.71752,-1.23744 6.71752,-1.23744 l 7.77817,-0.88388 12.9047,-3.53554 7.77817,-3.0052 11.31371,-5.65686 7.42462,-3.53553 4.5962,-3.18198 5.65685,-4.24264 5.48008,-5.12653 3.71231,-4.06586 3.35876,-4.77297 3.18198,-7.6014 c 0,0 2.22509,-9.31066 3.73375,-13.2368 0.60424,-1.57248 2.27665,-5.32475 2.27665,-5.32475 0,0 1.66563,-2.82127 2.19455,-4.11764 1.36247,-3.33939 2.48792,-8.07374 3.81586,-11.43871 1.02792,-2.60473 3.88909,-8.48528 3.88909,-8.48528 l 2.12132,-4.24264 2.82843,-4.5962 c 0,0 1.95598,-3.35552 2.82842,-4.77297 1.18754,-1.92939 2.55239,-4.48342 3.81587,-6.36396 1.23086,-1.832 4.49264,-6.01041 4.49264,-6.01041 0,0 1.98292,-3.06461 3.0052,-4.24264 1.7703,-2.04001 4.4451,-4.48309 6.54074,-6.18718 1.15283,-0.93744 2.76476,-1.73583 4.06586,-2.45343 1.31101,-0.72307 3.21165,-1.74981 4.5962,-2.31954 2.11285,-0.86942 7.07107,-2.82843 7.07107,-2.82843 l 3.53553,-2.47487 c 0,0 1.46882,-0.66325 1.76777,-1.23744 0.29389,-0.56447 -0.26993,-1.54501 0,-2.12132 0.17569,-0.3751 0.65523,-0.96869 1.06066,-0.88388 0.46429,0.0971 0.50466,0.98524 0.7071,1.41421 0.22292,0.47236 0.94543,0.86115 1.45711,0.96599 0.99257,0.20337 0.96938,-1.60906 1.34987,-2.5481 0.47179,-1.16437 0.47257,-2.34094 0.53034,-3.30698 0.11835,-1.97895 -0.043,-3.37782 0.0732,-5.60139 0.0335,-0.63993 -0.80908,-2.30572 -0.75889,-2.94455 0.0894,-1.13749 -1.06066,-3.88909 -1.06066,-3.88909 l -1.41421,-3.71231 c 0,0 -0.99183,-2.35034 -1.41421,-3.35875 -0.26635,-0.6359 -0.94029,-1.4342 -0.88389,-2.12132 0.0409,-0.49864 0.38679,-1.35761 0.88389,-1.41422 0.29807,-0.034 0.50397,0.48635 0.7071,0.70711 0.61151,0.66459 1.94455,2.2981 1.94455,2.2981 l 2.12132,1.23743 c 0,0 2.02451,-0.0621 2.82843,-0.35355 0.82978,-0.30087 1.67068,-1.2272 2.47487,-1.59099 0.70354,-0.31826 1.84392,-0.26196 2.47487,-0.70711 0.37277,-0.263 0.47193,-1.04144 0.88389,-1.23743 0.76773,-0.36525 2.00748,-0.0443 2.82842,0.17677 0.57254,0.15417 1.76777,0.88389 1.76777,0.88389 0,0 1.79777,0.1324 2.47487,-0.17678 0.47757,-0.21807 1.03653,-0.7524 1.23744,-1.23744 0.26383,-0.63695 -0.13038,-1.6211 0,-2.29809 0.10802,-0.56088 0.35442,-1.31848 0.70711,-1.76777 0.28169,-0.35885 1.02868,-0.47825 1.23743,-0.88389 0.19413,-0.37724 -0.004,-0.98997 0,-1.41421 0.0265,-2.81112 0.17678,-9.36916 0.17678,-9.36916 0,0 -0.35855,-4.53059 0.17678,-6.36396 0.17335,-0.59368 0.52247,-1.46305 1.06066,-1.76777 0.50764,-0.28742 1.49942,0.37707 1.94454,0 0.73842,-0.62554 0.53033,-3.18198 0.53033,-3.18198 0,0 0.2922,-5.41834 -0.17677,-7.42462 -0.18856,-0.80666 -1.32023,-1.55685 -2.12133,-1.76777 -0.57339,-0.15096 -1.3522,0.32712 -1.94454,0.35355 -0.58519,0.0261 -1.39443,0.0245 -1.94454,-0.17677 -0.60795,-0.2224 -1.12097,-1.2107 -1.76777,-1.23744 -0.73613,-0.0304 -1.41009,1.04516 -2.12132,1.23744 -0.25597,0.0692 -0.67488,0.16319 -0.88388,0 -0.51705,-0.4037 -0.45018,-1.47025 -0.53033,-2.12132 -0.14255,-1.15799 1.08784,-4.31082 0,-3.88909 -0.30594,0.11861 -1.25615,0.003 -1.59099,-0.35355 -0.6986,-0.74336 -0.53033,-3.35876 -0.53033,-3.35876 l -0.53033,-2.65165 -3.00521,-23.86486 -0.17677,-5.12652 -0.17678,-5.48008 -0.70711,-9.54594 0.17678,-8.48528 0.17678,-9.01561 1.06066,-10.07627 1.59099,-9.54595 1.06066,-8.48528 c 0,0 0.62479,-4.64 1.23743,-6.54073 0.53861,-1.67105 1.77735,-3.69211 2.47488,-5.30331 0.45386,-1.04834 1.13887,-1.55184 1.41421,-2.66053 0.10029,-0.40383 0.91409,-0.79971 0,-1.76777 z"
       inkscape:connector-curvature="0"
       id="path2426"
       style="opacity:0.5;fill:#ffcc00;fill-rule:evenodd;stroke:#000000;stroke-width:1px;stroke-linecap:butt;stroke-linejoin:miter;stroke-opacity:1" />
    <text
       x="443.15112"
       y="479.76028"
       id="text2556"
       xml:space="preserve"
       style="font-size:50.625px;font-style:normal;font-variant:normal;font-weight:normal;font-stretch:normal;text-align:start;line-height:125%;writing-mode:lr-tb;text-anchor:start;fill:#000000;fill-opacity:1;stroke:none;font-family:Times New Roman;-inkscape-font-specification:Times New Roman"><tspan
         x="443.15112"
         y="479.76028"
         id="tspan2558">V3</tspan></text>
    <text
       x="426.40894"
       y="400.06345"
       id="text2560"
       xml:space="preserve"
       style="font-size:50.625px;font-style:normal;font-variant:normal;font-weight:normal;font-stretch:normal;text-align:start;line-height:125%;writing-mode:lr-tb;text-anchor:start;fill:#000000;fill-opacity:1;stroke:none;font-family:Times New Roman;-inkscape-font-specification:Times New Roman"><tspan
         x="426.40894"
         y="400.06345"
         id="tspan2562">V2</tspan></text>
    <text
       x="417.40894"
       y="299.06345"
       id="text2564"
       xml:space="preserve"
       style="font-size:50.625px;font-style:normal;font-variant:normal;font-weight:normal;font-stretch:normal;text-align:start;line-height:125%;writing-mode:lr-tb;text-anchor:start;fill:#000000;fill-opacity:1;stroke:none;font-family:Times New Roman;-inkscape-font-specification:Times New Roman"><tspan
         x="417.40894"
         y="299.06345"
         id="tspan2566">V1</tspan></text>
  </g>
</svg>
